<svg xmlns="http://www.w3.org/2000/svg" viewBox="0 0 1474.33 838.29"><path d="M1261.87,959.56" transform="translate(-264.13 -206)"/><path d="M380.83,757.26A300.7,300.7,0,0,0,372.11,789C374.62,778.07,377.64,767.29,380.83,757.26Z" transform="translate(-264.13 -206)"/><path d="M372.11,789c-1.54,6.68-2.88,13.42-4,20.08C368.58,806.5,369.93,798.78,372.11,789Z" transform="translate(-264.13 -206)"/><path d="M613.66,826.26c-1-2.71-1.66-4.26-1.66-4.26Z" transform="translate(-264.13 -206)"/><path d="M1023.42,357.48C1014,376.05,1006,504,1006,504s-8.38-140.48-16-149c-.35-.39,14.68,4.83,12,9" transform="translate(-264.13 -206)"/><path d="M1152.9,342.13" transform="translate(-264.13 -206)"/><path d="M1006,373l-35.25,50c1.36-4.47,11.59-69.08,8.25-70-32.83-9.08-113-17.4-113-17.4s91,3.4,117-7.6c0,0,14,1,23-122" transform="translate(-264.13 -206)"/><path d="M1290.68,695.09l1-.78c-2.59-9.78-4.62-19.77-6.26-29.88C1285.57,678.89,1287.19,690.64,1290.68,695.09Z" transform="translate(-264.13 -206)"/><path d="M1350.92,661.94c-5.45-8.52-12-16.76-15.18-26.17-1.78-5.25-1.44-11.27-1.12-17.28a37.5,37.5,0,0,1-3.39-9c-1.39-5.84-1-15.84-3.51-19-2.81-3.48-4.09-7.86-2.94-11.87a263.23,263.23,0,0,1-22.46-15.28c-8.93-6.77-15.62-16.69-24-25.89-22.11-24.52-23.32-25.86-50-64.48l-.61.83c9.29,17.41,23.94,45.79,33.83,65.67,8.21,16.5,15.39,32.13,16.67,51.82,1.59,24.29,3.3,49,7.22,73-.26-28.69,5.38-68.06,14.11-82.26,20,35.74,15.76,93.45-7.85,112.14.6,2.26,1.22,4.51,1.88,6.75,11,37.55-12.75,58.88-25.09,89.89a66.8,66.8,0,0,1,4.21,18.44c.21,2.29.29,4.65.27,7,1.88-1.32,3.75-2.65,5.64-3.95,3.65-9.53,6-15.5,11.18-26.37l40.53-78.57c8.6-11.49,18.34-22.06,29.24-34.84C1356.77,669.27,1353.44,665.88,1350.92,661.94Z" transform="translate(-264.13 -206)"/><path d="M480.28,505.52c-20.35.47-39.9-1.61-59.51-3.67-26.66,20.32-111,45.44-111,45.44-.46,3.46-.64,7.18-1.48,10.81-1.83,7.86-3,16.11-6.35,23.37-2.67,5.79-8.17,10.35-12.41,15.46-3-3.19-6.94-5.79-9.54-9.2-5.24-3.84-10.59-7.5-15.88-11.27a205.2,205.2,0,0,1,16.26,65.34c.71,8.56-1.26,17.89-2.05,27.63C276,696.76,276,696.76,267.26,740c4-13.44,13.45-43.54,20-63.35,4.64-14.06,9.33-27.07,18.87-39.59,17.85-23.41,36.1-47.55,49.29-73.8,14.63-29.1,37.82-29.14,60.28-42.92,0,0,12.89,16.42-10.54,21.61,2.86-.54,11.43-2.9,14-4.3,20.38-10.88,40.3-23.72,61.48-32.09ZM301.5,634.67c1.29-32.14,25.82-72.67,47.07-77.78C349.88,569.58,317.25,623.51,301.5,634.67Z" transform="translate(-264.13 -206)"/><path d="M734,425.77c1.29-7.48-4.23-15.85-11.34-19.64a10.44,10.44,0,0,1-3.08-2.51c-29.93,18-79,34.84-79,34.84-.58,3.85-.94,8-1.86,12-2,8.68-3.42,17.83-6.62,25.79-2.54,6.34-7.35,11.19-11.16,16.7-2.27-3.69-5.39-6.77-7.34-10.68-2.83-3.12-5.72-6.14-8.6-9.18-.59,1.35-1.2,2.68-1.85,4a299,299,0,0,1,7.58,65.52c.09,9.58-2.09,19.9-3.32,30.73-2.05,17.5-2.93,24.92-5.15,37.2a12.21,12.21,0,0,1,3.93-1.25c2.85-9.74,5.72-19.44,8.17-27.57,4.66-15.47,9.29-29.79,17.91-43.33,16.13-25.33,32.62-51.46,45.07-80.17,13.79-31.82,33-30.86,52.32-45.25,0,0,4,7.75,1.65,14.57l.55-.25,1.83-1.11-.08,0C734.35,425.8,734.16,424.62,734,425.77ZM628.5,535.56c3-35.78,25.61-79.93,43.46-84.71C672.3,465.08,642.17,523.8,628.5,535.56Z" transform="translate(-264.13 -206)"/><path d="M578.52,981.26c-3.92-4.85-8.39-9.48-11.22-15-2.26-4.38-2.42-9.9-3.52-14.91,3.36-.3,6.83-1.48,10.14-1.44,4.83-1.37,9.61-2.89,14.41-4.32a159,159,0,0,1-47.54-21.15c-5.55-3.63-10.3-9.27-15.86-14.38-15.52-14.44-15.52-14.44-37.7-40.27,6.3,8.8,20.13,28.89,29.1,42.29,6.36,9.51,12.06,18.55,15.15,30.31,1.66,6.31,3.34,12.66,5.12,19,10.38,20.48,17.85,42.2,25.1,63.94,1.59,4.78,3.27,9.55,4.9,14.34,7.4-25.78,17.81-52.4,17.81-52.4C582.51,985.38,580.34,983.5,578.52,981.26Zm-18.39,25.11c-8.36-5.24-25.71-50.75-25-65.65C554.07,956.78,567.11,991,560.13,1006.37Z" transform="translate(-264.13 -206)"/><path d="M1225.78,477.51a11.15,11.15,0,0,1,.47-1.52c-8.69-7.12-24.3-10.47-14.25-23.63,9.86-12.91,13.79-25.48,17.48-37.69,2-6.53,8.41-12.71,15.72-19.34,10.31-9.35,26.41-25.05,33.8-31.33-27.12,19.73-27.2,21.28-47,33.4-7.09,4.32-12.88,8.59-20.29,12.21A520.75,520.75,0,0,1,1146,436.05c7.43-1,14.84-2,22.28-3.05,4.9-1.17,10.3-1.84,15.34-2.88-.52,2.71.46,5.32-1.91,8.14-3,3.53-8.58,7.24-13.3,10.86-2.19,1.68-5,3.3-7.38,4.86,0,0,50.69,20.65,56.84,32.54l10,.77A13,13,0,0,1,1225.78,477.51Zm-2-62.36c4.31,6.66-11.3,33.81-22.52,39.16C1187.48,449.64,1199.21,429.23,1223.74,415.15Z" transform="translate(-264.13 -206)"/><path d="M561.24,869.12C550.69,836,536.89,731,536.89,731c-1.74-.55-3.59-.75-5.42-1.78-4-2.24-8.1-3.64-11.78-7.78-2.93-3.29-5.29-10.12-7.91-15.38,1.55-3.73,2.8-8.68,4.46-12,1.84-6.55,3.59-13.25,5.4-19.86a79.93,79.93,0,0,1-13.72,12.25,4.57,4.57,0,0,1-.32,2.24c-4.84,11.5-8.32,25.87-17.49,34.94.63,1,1.26,2.12,1.88,3.27,12,22.12,24.3,44.72,37.61,61,14.76,18.06,15.13,47,22.34,74.9,0,0-8,16.17-11-13,.31,3.55,1.62,14.22,2.35,17.46,5.74,25.34,12.45,50.1,16.95,76.46,0-.16,0-.32,0-.47C559.74,918,560.5,893.59,561.24,869.12ZM493.09,721.21c16.09,1.42,36.71,31.76,39.58,58.22C526.34,781.14,498.9,740.78,493.09,721.21Z" transform="translate(-264.13 -206)"/><path d="M1404.14,487.85c-12.94-5.4-25.06-13.53-37.48-20.46a49.3,49.3,0,0,0-8.59-2.81c14.37,3.48,6.21,13.37,6.21,13.37-13.67-8.73-28-9.06-36.6-27.07-7.79-16.26-18.73-31.28-29.43-45.85-5.72-7.79-8.44-15.82-11.12-24.5-3.78-12.22-9.24-30.78-11.51-39.07,4.81,26.58,4.81,26.58,5.92,43.35.36,6,1.46,11.72.91,16.95-1.54,14.65-9.92,39.25-15.46,51.24,3.31-2.24,11.25-15.84,14.53-18.12,1.65-2.06,4.12-3.6,6-5.52,2.55,3.19,5.88,6.06,7.45,9.64,2,4.49,2.58,9.56,3.61,14.39a66.2,66.2,0,0,1,.77,6.65s51.66,16.48,67.83,29.28c12.11-1,24.19-2,36.73-1.48Zm-80.76-33.19c-13-3.4-27.63-28.56-28-48.26C1304.94,413.44,1324.35,446.9,1323.38,454.66Z" transform="translate(-264.13 -206)"/><path d="M869.73,390.8c-4.11,7.81-9.48,15.67-13.93,23.5-3-3.88-7.7-5.71-8.73-12.17-1.3-8.09.2-19.83.83-30.31.28-4.85,1.35-10.46,2-15.43,0,0-86.65,41.85-109.81,35.79l-12.6,12.13a23.74,23.74,0,0,1,15.58,8.89,20.29,20.29,0,0,1,1.52,2.41c19.67-2.91,42.29-19.37,48.33,9.41,5.93,28.23,18.28,48.31,30.44,67.64,6.42,10.21,7.31,25.75,7.75,42.95a12.74,12.74,0,0,1,1.89.83,37.07,37.07,0,0,1,7,5.18c.84-6.92,2-14.76,3.7-25.14,2.43-14.41,3.4-27.06,7.13-41.07C861.24,436.17,875.07,397,891.51,358,884.26,368.94,877,379.8,869.73,390.8Zm-40.34,93.77c-14-2.26-32.38-54.94-26.55-76C825.09,396.14,838.93,435.75,829.39,484.57Z" transform="translate(-264.13 -206)"/><path d="M1099.37,719.42c1.74-4,3.64-8.66,7.8-10.65a6.41,6.41,0,0,1,1.4-.47,118.89,118.89,0,0,1,6.16-37.71,40.16,40.16,0,0,1,2.28-5.47c-6.16-.09-7.17-6-7-12.12a54,54,0,0,1,1-10c.13-.62-2.14-2.38-2-3-1.28-.63.92-4,1-7,.07-2.74-2-3.49-1-6,.47-1.11-1.54-3.92-1-5,.19-.38.82-.62,1-1s-.72-1.73-1-1c.56-1.45-.43-1.22.72-2.07,0-.12,0-.24.08-.35a6.15,6.15,0,0,1,3.08-3.9c-1.8-8.26-3.8-16.37-5.51-24.7-1.12-5.41-5.56-36.49-6.27-42.06-5.19-20.19-6.55-15.16-9.87-36.32-1.35-8.62,2.18-19.14,7.67-27.63a42.34,42.34,0,0,1-5.55-7.42c-7.41-7.61-11.6-17.42-17.49-26.13-12.2,7.34-20.42,8.37-31.86,5.58.25.41.47.81.69,1.21a5.64,5.64,0,0,1,1.51,1.53c2.91,4.28,6.16,8.31,9.08,12.59,2.8,4.1,4.47,8.5,6.09,13.15.05.15.09.28.13.42.66.87,1.33,1.73,2,2.61,5.74,7.7,13,17.32,12.24,27.49-.08,1-.23,2-.4,3l-.32,0c8,26-59.19,58.72-72.26,56.74C996.12,572.88,988,572,978,562c-3.37,1.24,1.18,13.17-2.19,14.34L978,581c9.48,11.51,17.66,23.15,27,35,4.11,5.22,7.34,12,10.36,18.88,2.06,4.75,3.93,13.86,2.62,17.78-1.47,4.41-6.68,7.49-10.14,7.18-25.18-2.29-54.08-41.77-61.85-83.42-3.66-19.63-4.56-45.8.57-69.4-2.47-3.12-2.72-7.5-4.72-10.81a1.75,1.75,0,0,1-.24,0,2,2,0,0,1-.84-.18,130.64,130.64,0,0,1-.86,13.44c-2.62,23-16.17,40.91-24.65,39.19-3,8.46-2.41,13.45-5.44,21.89-.25.71-1.56,5.54-1.81,6.25,4,7.55,8.26,15.86,11.89,23.81,12.64,27.72,12,28.55-2,55.19,28.34-5,40.23,28.52,52,62.36a117.62,117.62,0,0,0-2.68-25.5c-2.12-8.54-4.28-17.26-6.52-26.32l45.58,16.34c-1.11,3.74-2.08,7-4,13.25,14.7-10.49,27-21.49,40.15-27.81,7.38-3.56,17-3.25,23.81,2.22,8.63,7,16.8,19,22.62,32.23,3,6.8,5.9,13.72,8.76,20.71a11.64,11.64,0,0,1,1.36-2.79A7.92,7.92,0,0,1,1099.37,719.42ZM1075.15,627c-10.92,4.1-21.15,8-33.6,5.68-10.64-2.74-14.91-15.46-15.16-29.79-.13-7.48,4.35-18.77,8.47-22.22,13.06-10.92,25.86-22.42,40.62-27.21,4.52-1.46,11.69,4.74,14.18,11.38C1101.61,596.72,1096.41,619,1075.15,627Z" transform="translate(-264.13 -206)"/><path d="M937.36,471.05c2,5.26,3.23,12.74,3.4,21.49a2,2,0,0,1,.84-.18,1.87,1.87,0,0,1,1.12.35,2.06,2.06,0,0,1,2,.91c.22.32.42.64.61,1-.21-1-.36-2-.47-3.09a27.81,27.81,0,0,1-3.13-11.7c-.52-8.46,2.17-16.17,5.73-23.67,1.07-2.24,2.27-4.39,3.42-6.58.2-.38.41-.94.64-1.49l0-.12.15-.72c1.4-7.3,2.65-14.67,4.05-22l-2.52,1.54c-3.72,9.65-10.22,27.1-14,36.68.76-1.9,1.53-3.81,2.29-5.72a123.75,123.75,0,0,0-4.22,13.3Z" transform="translate(-264.13 -206)"/><path d="M760.55,760.47a12.42,12.42,0,0,1,4.78.91c-.32-1.21-.66-2.43-1-3.64-2.76-9.52-5.51-18.79-7.3-28.56-.17-1-.37-1.9-.56-2.85-4.11,4.92-11.28,8.56-21.47,10.69-13.42,2.82-27.5,2.69-41.28,3.9-13.08-1.88-18.32-10.6-18.63-20.41-.15-5.12,5.35-12.86,10.42-15.22a316.73,316.73,0,0,1,49.9-18.64c2.83-.78,7.29.49,11.11,2.58a154.87,154.87,0,0,1-3.68-17.7c-2.49-17.82-1.05-35.37,1.55-53A61.68,61.68,0,0,0,740,614c-.18-.18-.3-.3-.39-.41-39.51,15.41-75.38,4.09-109.53-21.32-4.62-3.43-7.2-1-7-5.24l-37.84,12.85c-4.57,6.61-12.56,18.56-17.21,25.13l2.81-3.92a62.9,62.9,0,0,0-5.17,9.09v0c4,5.78,5.35,15.45,3.12,26.34-3.22,15.73-19.87,28-30.29,26.85-3.7,5.8-3,9.21-6.68,15-.31.49-1.91,3.8-2.22,4.29,4.9,5.17,10.15,10.86,14.6,16.31,8.12,9.92,11.78,14.82,11,19.83,7.11,5.59,14.29,10.93,20.85,17.33,9.31,9.1,18.57,18.4,27.11,28.28-.26-.8-.54-1.6-.83-2.38l-8-18,56,11.2-4.85,9.07c18.06-7.18,33.22-14.71,49.32-19,9.07-2.44,21-2.23,29.26,1.52a77.23,77.23,0,0,1,27.19,21.34,50,50,0,0,1,3.82-4.68C745.28,778.49,747.12,760.47,760.55,760.47Zm-95.79-5.87c-1.81,3-8.21,5.14-12.46,4.92-30.94-1.56-66.45-28.61-76-57.15-8.68-26,9.63-72.34,32.86-81,4.57-1.7,13.52-.74,16.17,2.37C639.89,640.8,648.91,660.39,650,683c.42,9.16-3.06,13.61-12.61,14.71-8.2.94-16.26,3-24.39,4.61l-.26,4.2c11.65,7.89,23.43,15.61,34.9,23.73,5,3.58,10.24,7.43,13.94,12.18C664.07,745.68,666.36,751.92,664.76,754.6Zm4-66.91c-10.71-19.46-17.59-40.06-17.4-64.76,12.53,3.94,74,33.27,83.1,39,0,4.29-1.89,8.37-3.58,9.1-16.7,7.1-33.45,14.15-50.56,20.25C677.18,692.41,670.15,690.27,668.73,687.69Z" transform="translate(-264.13 -206)"/><path d="M1441.31,738a13.33,13.33,0,0,1-.79-1.49c-11.29-.15-24.68,7.07-27.25-9.67-2.53-16.42-9-28.84-15.31-40.82-3.39-6.4-3.39-15.35-3.12-25.2.39-13.89.21-36.46.79-46.09-4.59,32.71-3.5,34-8.51,56.06-1.82,7.88-2.76,14.91-5.3,22.46a452.67,452.67,0,0,1-26.73,62.36c4.46-5.5,9-10.94,13.4-16.48,2.58-4,5.87-8,8.64-12,1.62,2.46,4.21,3.91,4.61,7.64.5,4.67-.71,11.14-1.38,17-.31,2.7-1.09,5.76-1.62,8.49,0,0,50.63-15.69,63.64-10.18l7.54-5.69A15.67,15.67,0,0,1,1441.31,738Zm-47-48c7.89,2.54,16.8,33.84,12.84,45.15C1394.08,740.21,1387.39,716.68,1394.29,690.07Z" transform="translate(-264.13 -206)"/><path d="M831.84,531.9a6.77,6.77,0,0,1-1.54-2.26h0a8,8,0,0,1-4.87-2.31c-12,5.4-23.87,10.12-32.87,13.54.74,2.19,1.18,4.5,1.93,6.93.38,1.22.77,2.43,1.16,3.63a22.69,22.69,0,0,1,2.63,7.78q.79,2.28,1.6,4.56a22.63,22.63,0,0,1,8.37-4.74c.33,13.88-28.38,70.2-42.46,83.79a6.82,6.82,0,0,1-.73.68l-.27.23v0a6.37,6.37,0,0,1-.8.5,165.86,165.86,0,0,1-17.09,7.86c-.1,9.21-2.12,19.1-3.3,29.45-.71,6-1.28,10.89-1.81,15.15a16.77,16.77,0,0,1,4.32,8.12c1.56-5.27,3.06-10.33,4.44-14.89,4.66-15.47,9.29-29.78,17.91-43.33,16.13-25.33,32.62-51.46,45.07-80.17,6.29-14.52,13.71-22.21,21.75-27.65C832.78,537.68,831.63,534.67,831.84,531.9Z" transform="translate(-264.13 -206)"/><path d="M1334.26,692.18c.44,1.23.89,2.46,1.33,3.7.3.33.6.67.89,1Q1335.43,694.5,1334.26,692.18Z" transform="translate(-264.13 -206)"/><path d="M1362.93,674.41q-3.12-2.73-6.26-5.43a57.76,57.76,0,0,1-4,7.21c.33.84.67,1.68,1,2.52,2,5.24,3.89,10.57,5.51,16,3.43,7.15,6.68,14.36,9.55,21.74,6.55-7.21,12.72-13.84,18.16-19.6-2.95-2.63-5.5-5.68-8.67-8.67-1.57-1.49-3.17-3-4.77-4.42A35.9,35.9,0,0,1,1362.93,674.41Z" transform="translate(-264.13 -206)"/><path d="M1343.73,517.74c-5,38.26-10.08,77.36-11.62,116.79q4.31,7.1,8.13,14.46c-2.58-41.21,1.74-104.51,10.88-128a11.29,11.29,0,0,1,.68-1.65c.09-.19.17-.4.26-.59,0,0,0,0,0,.07a14.06,14.06,0,0,1,.93-1.45,332.77,332.77,0,0,1,22.21-26.67c-7.07-13.87-11.49-30.42-17.68-46.93-3.58-9.67-6.45-17.41-8.91-24.24a27.62,27.62,0,0,1-13.56-8.37c1.56,9.25,3,18.12,4.34,26.13C1343.84,464.5,1347.4,490,1343.73,517.74Z" transform="translate(-264.13 -206)"/><path d="M1519.74,491.37c22.18,21.85,190.49,76.4,205.18,81.13v0C1498.57,489.13,1413,307,1413,307s58.79,134.28,74.21,232.64c2.52,6.28,6.31,12,7.62,18.79,1.77,9.25,3.1,18.92,4.25,28.27.46,3.72-1.62,7.12-4.58,9.36.26,2.44.46,4.85.65,7.26a23.74,23.74,0,0,1,9.25-1.94c11.72,0,20.85,8.14,23.71,18.76a27.16,27.16,0,0,1,3,11.26,21.93,21.93,0,0,1-3.85,13.2,23.14,23.14,0,0,1-4.33,8.88,9.81,9.81,0,0,1,1.32,1,10.9,10.9,0,0,1,2.06-.81l3.13-.42a9.51,9.51,0,0,1,1.07,0,11.25,11.25,0,0,1,3.35-8.13c4.3-4.29,12.46-4.78,16.66,0,10,11.44,11.91,26.34,14.12,40.75.65,4.23-.25,8.47-3,11.35a11.77,11.77,0,0,1,3.09,1.26,12.62,12.62,0,0,1,5.76,8.82,15.39,15.39,0,0,1,.33,6.5c-3.48,22.17-20.31,37.52-39.73,46.7-1,1.27-2,2.52-3.12,3.73-3.26,3.61-8.71,4.22-13,2.39-7.89,2.22-12.08-3.28-13-9.62-.76-5.27.37-11.19,6.92-13.13,2.54-.75,5-1.6,7.51-2.55,4.08-5.5,7.78-11.3,12.34-16.43,1.77-2,3.62-3.95,5.49-5.87a10.6,10.6,0,0,1-3.27-3.5,10.79,10.79,0,0,1-11,8.65,10.68,10.68,0,0,1-9.88-5.66,10.93,10.93,0,0,1-7.82,3c-7.17,0-10.94-5.25-11.33-10.8a11.85,11.85,0,0,1-4.24.82q-.74,1.18-1.41,2.43a14.11,14.11,0,0,1-1.11,1.69c-1.33,3.49-2.73,6.8-4.19,10,12.74-5.6,10.18-.56,8.94,9.84-1.43,12-75.07,195.43-75.07,195.43s-2.29,7.92-11.21,5.6-44.6-39.63-44.6-39.63c-3.26-23,9.9-57.4,14.84-69.25l-28.76,66.75c21.34,18.78,57.4,112.43,57.4,112.43,68.7-191,183.48-271.88,183.48-271.88,9.89-1.36,17.53,14,23,32.1-5.24-18.84-11.13-35.12-15.57-44.84C1584.15,703.82,1519.74,491.37,1519.74,491.37Z" transform="translate(-264.13 -206)"/><path d="M1497.38,696.22a12.55,12.55,0,0,1,.31,1.48,13.06,13.06,0,0,1,1.4-1.08c.07-.35.13-.7.2-1a11.77,11.77,0,0,1,1.54-5l1.84-2.39a10.16,10.16,0,0,1,3.65-2.46c.83-2.64,1.83-5.24,2.93-7.94.12-.32.26-.62.4-.92-.43,0-.88.07-1.35.07a15.34,15.34,0,0,1-1.7-.11,10.42,10.42,0,0,1-3.55,9.12C1501.52,687.36,1499.51,692.46,1497.38,696.22Z" transform="translate(-264.13 -206)"/><path d="M1411.51,982.54c4.5-26.35,11.21-51.12,17-76.45.73-3.24,2-13.91,2.35-17.47-2.94,29.18-11,13-11,13,7.21-27.93,7.58-56.83,22.34-74.9,13.31-16.29,25.65-38.9,37.61-61,6.4-11.82,13-17.58,20.06-23.28,10-8,25.19-19.69,32-24.56-21.72,10.6-21.72,10.6-35.42,13.4-4.88.93-9.57,3.33-13.84,2.4-11.94-2.63-22.67-9.85-32.42-20.66,1.81,6.61,3.56,13.31,5.4,19.86,1.52,3-2.31,3.38-.94,7a2,2,0,0,1-.43,2.2c-2.13,1.91,1.42-2-1.19,1-3.68,4.13-1,2.77-5,5-1.83,1-11.35,21.21-13.09,21.76,0,0-13.8,105-24.35,138.09.75,24.62,1.51,49.15,1,74.69Zm27.63-164.38c2.86-26.45,23.49-56.8,39.57-58.22C1472.9,779.51,1445.46,819.87,1439.14,818.16Z" transform="translate(-264.13 -206)"/><path d="M1521.94,519.38c21.17,8.38,41.1,21.21,61.47,32.1,2.61,1.39,11.18,3.76,14,4.3-23.43-5.19-10.53-21.61-10.53-21.61,22.46,13.77,45.65,13.82,60.27,42.92,13.2,26.25,31.45,50.39,49.3,73.8,9.54,12.51,14.22,25.52,18.86,39.58,6.55,19.82,16,49.92,20,63.36-8.71-43.2-8.71-43.2-11.08-70.53-.8-9.74-2.77-19.07-2-27.63a205.14,205.14,0,0,1,16.25-65.33c-5.28,3.76-10.64,7.43-15.87,11.26-2.61,3.41-6.57,6-9.54,9.21-4.25-5.11-9.75-9.68-12.42-15.46-3.35-7.27-4.51-15.52-6.34-23.37a106.55,106.55,0,0,1-1.48-10.82s-84.33-25.11-111-45.44c-19.62,2.06-39.17,4.15-59.52,3.67ZM1654,570.76c21.24,5.11,45.77,45.65,47.06,77.78C1685.34,637.38,1652.72,583.46,1654,570.76Z" transform="translate(-264.13 -206)"/><path d="M472.05,571.73c-1.38-.48-2.74-1-4.11-1.46a9,9,0,0,1-2.53.88c-12.78,2.32-24.19,8.25-35.1,15-14.67,12.39-81.67,35.92-103.59,36.32a6.33,6.33,0,0,1-1.15,0h-.41l0,0a6.68,6.68,0,0,1-1.05-.2,180.05,180.05,0,0,1-20.06-6.83,185.07,185.07,0,0,1-16.86,13.92l.42,3.13a93.49,93.49,0,0,1,1.84,9.77c11.64-6,23.28-11.19,36.12-14.47,34.26-8.73,69.48-17.85,103.75-32.33,17.34-7.33,29.7-8,40.63-6.26-1.05-2.87.62-6.32,3.16-8.5a8,8,0,0,1,.73-3.12h0A8.58,8.58,0,0,1,472.05,571.73Z" transform="translate(-264.13 -206)"/><path d="M648.32,465a8.64,8.64,0,0,1-1.82-5.8c-1.38-.48-2.75-1-4.11-1.46a9.13,9.13,0,0,1-2.53.87c-12.78,2.32-24.19,8.26-35.1,15-14.67,12.39-81.68,35.93-103.6,36.32a7.23,7.23,0,0,1-1.14,0h-.41l0,0a8.27,8.27,0,0,1-1.06-.21,175.34,175.34,0,0,1-18-6.05c0,.38,0,.77,0,1.17a115.31,115.31,0,0,1-1.68,17.73,143.17,143.17,0,0,1,21.16-7.33c34.26-8.73,69.48-17.84,103.75-32.33,17.34-7.33,29.7-8,40.63-6.26-1.05-2.86.61-6.32,3.16-8.49a8,8,0,0,1,.73-3.13Z" transform="translate(-264.13 -206)"/><path d="M828.13,697.16a81.8,81.8,0,0,1-4.18-7.33c-5,7.67-8.64,16.13-11.82,24.76-3.92,18.79-42.2,78.61-59.22,92.43a7.08,7.08,0,0,1-.91.7l-.33.25v-.05L733,820c.22,2.23,1.76-1.32,2-1,3.63,4.76-10.83,20.79-8,26,3.56-6.5,23.63-27.12,28.29-33.15,21.6-28,43.73-56.86,61.8-89.38A89,89,0,0,1,830,704.4C829.65,701.76,829.39,699.25,828.13,697.16Z" transform="translate(-264.13 -206)"/><path d="M1559.34,627.11c-2.31,1.15-4.62,2.3-6.93,3.47-4,2.6-8.63,4.83-12.8,7.33-.46-2.9-2.23-5.29-1-8.85,1.47-4.46,5.24-9.86,8.25-14.9,1.4-2.34,3.37-4.81,5-7.07,0,0-52.6-6.57-62.18-17l-9.22,2.07a15.62,15.62,0,0,1,5.2,9.39,12,12,0,0,1,.11,1.69c10.23,4.78,25.4,3.73,20.85,20-4.47,16-3.72,30-2.88,43.49.44,7-3,14.82-7.1,23.33a12.58,12.58,0,0,1,2.08,6.91c2.26-3.32,4.92-7,8.62-11.88,4.91-6.44,8.66-12.46,14.09-18.28a437.42,437.42,0,0,1,39.28-37A11.69,11.69,0,0,1,1559.34,627.11Zm-50.67,37.57c-6.15-5.56-1.36-37.75,6.91-46.43C1529.52,619.09,1525.92,643.29,1508.67,664.68Z" transform="translate(-264.13 -206)"/><path d="M1530.58,612.39c-.3-.71-.56-1.41-.79-2.11-11.27-6.21-24.64-5.26-27.21-25.5-2.52-19.85-8.94-37.3-15.27-54.19-3.39-9-3.39-19.12-3.11-30.07.39-15.45.22-41,.8-51.52-4.59,34.4-3.51,36.42-8.52,58.61-1.82,7.91-2.75,15.33-5.29,22.47a307.35,307.35,0,0,1-26.7,56c4.46-3.8,8.94-7.53,13.38-11.39,2.57-3.15,5.86-5.83,8.63-8.85,1.61,3.64,4.2,6.66,4.6,11.07.49,5.54-.71,12.17-1.38,18.4-.31,2.88-1.09,5.91-1.62,8.7,0,0,50.55,9.44,63.54,22.62l7.54-2.36A34.46,34.46,0,0,1,1530.58,612.39Zm-46.94-79.25c7.88,7.09,16.76,47.13,12.81,57.76C1483.42,589.53,1476.74,559.42,1483.64,533.14Z" transform="translate(-264.13 -206)"/><path d="M1347.59,474.23a8.57,8.57,0,0,0,1.82-5.8c1.38-.48,2.75-1,4.11-1.46a9.49,9.49,0,0,0,2.53.88c12.79,2.31,24.19,8.25,35.11,15,14.66,12.38,81.67,35.92,103.59,36.31a7.36,7.36,0,0,0,1.15,0h.41l0,0a8.48,8.48,0,0,0,1-.21,175.47,175.47,0,0,0,18.06-6c0,.38-.05.76-.05,1.16a116.58,116.58,0,0,0,1.68,17.74,142,142,0,0,0-21.16-7.33c-34.25-8.73-69.48-17.85-103.75-32.34-17.34-7.32-29.7-8-40.62-6.25,1-2.87-.62-6.33-3.16-8.5a8.45,8.45,0,0,0-.73-3.13Z" transform="translate(-264.13 -206)"/><path d="M1100.23,628.27l-4.23.29,3.94.23A1,1,0,0,1,1100.23,628.27Z" transform="translate(-264.13 -206)"/><path d="M1606.06,760.94a301.36,301.36,0,0,1,8.72,31.74c-2.51-10.92-5.53-21.71-8.72-31.74" transform="translate(-264.13 -206)"/><path d="M1614.78,792.68c1.54,6.69,2.88,13.43,4,20.08C1618.31,810.19,1617,802.46,1614.78,792.68Z" transform="translate(-264.13 -206)"/><path d="M1396.67,991.89s10.41,26.62,17.81,52.4c1.63-4.79,3.31-9.55,4.9-14.33,7.24-21.75,14.72-43.47,25.1-63.94,1.78-6.34,3.46-12.7,5.12-19,3.09-11.76,8.79-20.8,15.15-30.3,9-13.41,22.8-33.5,29.1-42.3-22.18,25.83-22.18,25.83-37.71,40.27-5.55,5.11-10.3,10.75-15.85,14.38a158.76,158.76,0,0,1-47.54,21.15c4.8,1.43,9.58,2.95,14.41,4.32,3.31,0,6.78,1.14,10.14,1.44-1.1,5-1.26,10.53-3.52,14.91-2.83,5.49-7.31,10.12-11.22,15A82.5,82.5,0,0,1,1396.67,991.89Zm49.3-46.57c.69,14.9-16.66,60.41-25,65.64C1414,995.59,1427,961.37,1446,945.32Z" transform="translate(-264.13 -206)"/><path d="M568.2,562.07a7,7,0,0,1-.71-2.81c-30.1,17.09-74.91,32.42-74.91,32.42-.58,3.85-.94,8-1.86,12-2,8.68-3.42,17.83-6.61,25.79-2.55,6.34-7.36,11.19-11.17,16.7-2.27-3.69-5.39-6.76-7.34-10.68-2.83-3.11-5.72-6.14-8.6-9.18-.59,1.35-1.2,2.68-1.85,4a299.16,299.16,0,0,1,7.58,65.52c.09,9.58-2.09,19.9-3.32,30.73-2.05,17.5-2.92,24.92-5.15,37.2a12.54,12.54,0,0,1,3.93-1.25c2.85-9.74,5.72-19.44,8.17-27.57,4.66-15.47,9.29-29.78,17.91-43.33,16.13-25.33,32.62-51.46,45.07-80.17,11.79-27.2,27.5-30.46,43.92-39.81C571.52,568.44,569.76,565.28,568.2,562.07ZM480.59,688.78c3-35.78,25.61-79.93,43.46-84.7C524.39,618.3,494.26,677,480.59,688.78Z" transform="translate(-264.13 -206)"/><path d="M523.57,422.15c8.56-11.69,18.34-23.64,28.14-35.61C550.76,376.78,573,334,573,334c-1.94.71-5.23,2.54-7.1,3.07-4.06,1.16-8.64,2.81-11.67,2.91-2.41.08-6.23-1-4.14-2.85,3.26-2.63,6.59-5.67,9.83-8.14,4.64-4.12,23.9-17.68,28.52-21.81-15.92,10.56-46.41,29.38-62.06,37.29-5.59,2.83-10.49,4.32-16.16,6.61-15.84,6.33-15.84,6.33-38.71,13.47,6.57-1.49,21-4.48,30.41-6.27,6.66-1.27,12.65-2.22,16.22-.21,6.69,3.77,13.66,7.55,24.12,7.81,11.6.29,1.55,13.75.28,22.91,0,0-15.74,12.13-8.76,0a51.76,51.76,0,0,0-3.45,6.94c-2.14,8.76-2.88,16.72-6.92,26.66Zm-2-67.42c19.27-8.32,39.4-.73,27.54,5.39C540.73,364.47,516,357,521.6,354.73Z" transform="translate(-264.13 -206)"/><path d="M1482.4,419.2c-4.42-9.78-7.92-12.52-10.4-21.2-.32-1.11-2,2.47-3,1,7.45,11.87-7-12.61-7-12.61-1.62-9.11-12.19-22.17-.61-22.9,10.45-.67,17.26-4.73,23.79-8.75,3.49-2.15,9.52-1.43,16.22-.42,9.45,1.43,24,3.85,30.63,5.08-23.13-6.24-23.13-6.24-39.2-11.95-5.75-2.07-10.71-3.37-16.4-6-16-7.31-47.15-24.92-63.47-34.86,4.77,4,24.55,16.75,29.35,20.69,3.33,2.35,6.78,5.25,10.14,7.75,1.57,1.94-1.62,3-4,3-3,0-7.67-1.46-11.77-2.45-1.9-.46-8.66-3-10.63-3.62,0,0,27.3,42.71,26.73,52.49,10.26,11.59,20.5,23.15,29.5,34.49ZM1454.27,358c-11.27-8,7.73-14,27.31-6.46C1486,355,1462.84,362,1454.27,358Z" transform="translate(-264.13 -206)"/><path d="M1545.11,703.75" transform="translate(-264.13 -206)"/><path d="M1510,729c43-32,56.57-50.77,58.85-63.4.6-19.19,27.93-84.74,42.3-101.3a6.1,6.1,0,0,1,.77-.85,4,4,0,0,1,.28-.3v.05a9.6,9.6,0,0,1,.86-.64,176.62,176.62,0,0,1,18.49-10.34,182.71,182.71,0,0,1,.94-21.85l-2.61-1.78a91.17,91.17,0,0,1-8.5-5.16c-3.3,12.68-7.25,24.78-13.41,36.52-16.42,31.31-33.21,63.59-45.36,98.75-6.15,17.79-16.6,50.3-53.6,66.3" transform="translate(-264.13 -206)"/><path d="M1511,730" transform="translate(-264.13 -206)"/><path d="M1511.35,718.69a7.42,7.42,0,0,1-.17-.92c-5.67-2.15-13.47-.91-12.31-10,1.14-8.92-.27-16.51-1.7-23.85-.77-3.92.55-8.53,2.13-13.56,2.24-7.08,5.47-18.75,7.18-23.6-7.12,16-6.76,16.86-12.53,27.31-2.08,3.73-3.58,7.18-6,10.6a224.11,224.11,0,0,1-22.64,27.2c3.06-2,6.12-4,9.17-6,1.89-1.6,4.13-3,6.11-4.57.46,1.57,1.55,2.79,1.2,4.79-.43,2.5-2,5.6-3.19,8.49-.56,1.34-1.4,2.77-2.07,4.08,0,0,27.81,1.25,33.55,6.49l4.64-1.54A9.29,9.29,0,0,1,1511.35,718.69Zm-16.62-33.39c3.6,2.76,3.48,20.53-.18,25.63C1487.25,711.09,1487.34,697.73,1494.73,685.3Z" transform="translate(-264.13 -206)"/><path d="M1543,697c-4,6-10.82,12.69-16,17-5.76,4.79-13.61,8.41-20.11,12.63-3,2-6.38,3.36-9.4,4.92,0,0,5.65,33.83,7.65,65.7,3.51-4.92,7.09-9.8,10.55-14.71,15.78-22.38,31.84-44.65,51.3-64.53,4.17-6.63,8.21-13.32,12.21-20,7.46-12.38,17.5-20.78,28.53-29.5,15.55-12.29,39.36-30.57,50.11-38.51-36.31,22.05-36.31,22.05-60.65,33.33-8.7,4-16.5,8.81-24.76,11.1a227,227,0,0,1-67.75,8.23S1520,692,1543,697Zm32-2.09c-3.49,17.22-39.34,63.32-51.7,66.49C1518.79,741.54,1545.74,706.89,1575,694.91Z" transform="translate(-264.13 -206)"/><path d="M1005.4,372.51l35.25,50c-1.36-4.46-11.59-69.07-8.25-70,32.83-9.08,113-17.4,113-17.4s-91,3.4-117-7.6c0,0-13.4,1.49-22.4-121.51" transform="translate(-264.13 -206)"/><path d="M1326,380l-47-16c-49,116-113,172-113,172-12,11-14.46,9.63-19,4q-7.9-9.84-15.23-19.5C1061.38,427.89,1030,351,1030,351H975C910,504,855,555,855,555c-30-34-121-193-121-193-8-12-9-13-23-11,20,52-28.37,33.46-30.52,31.73C632.87,438.88,504,573,504,573c0-94,85-266,85-266S500.23,483.52,271.05,558.65v.06c14.85-4.21,185-52.67,208-73.71,0,0-72,210-81,228-4.78,9.56-11.25,25.61-17.17,44.26C387,739.4,395.17,724.29,405,726c0,0,111.8,84.9,173.6,278.3,0,0,39.4-92.3,61.4-110.3l-26.34-67.74c4.51,12,16.42,46.88,12.34,69.74,0,0-37,36-46,38s-11-6-11-6-67-186-68-198-4-17,16-6S679,853,723,944c0,0-12-47,7-102s72-127,97-146c0,0,15,153,19,168,0,0-9-99,32-181,0,0,71.13,127.86,91,146,40.29,36.79,20,65,12,108,0,0,20-49,25-60,0,0,12,33,22,60-6-26-16-78,7-107,12.8-16.13,96-155,96-155,24,59,23,195,23.3,189,1-20.71,22.7-173,22.7-173s90,104,100,150-7,103-7,103c13.93-26.67,45.75-62.22,85.32-101.68C1360.11,837.55,1372,816,1378,807l5,10c6-9,7.38-9.24,8.08-9.92,51.81-49.86,94.92-86.28,94.92-86.28V598C1451,554,1326,380,1326,380ZM690,400s24,6,33,7c0,0,9.53,83.87,6,90-34,59-164,94-164,94S676,412,690,400ZM530,648.18a69.87,69.87,0,0,1-20.18,35.55c-33.39,31.53-30.93,75.81-30.93,75.81C459.8,711.07,420,690,420,690c39-26,48-74,48-74C535.43,580.26,536.48,619.09,530,648.18ZM685,796c0,6,14,60,14,60s-24-44-45-61-99-104.2-99-104.2c7-8.2,14-9.8,14-9.8,91-16,174,61,174,61C731,751,685,796,685,796ZM668,688c-36-11-33-16-113-24,0,0,49-48,86.3-73,35.54-23.82,88.48-78.55,88.48-78.55S739,698,743,719C743,719,704,699,668,688Zm93.45,31S748,651,749,623c1.4-39.18,16-140,16-147,0,0,41.1,91.45,40.55,139.72S786.9,697,761.45,719Zm102.38-36.43a7.41,7.41,0,0,1-6.71,4.3c-16.67-1.37-35.8-25.06-40.94-50-4.68-22.74,5.19-63.36,17.7-71,2.47-1.49,7.29-.65,8.72,2.08a117.38,117.38,0,0,1,13.26,51.9c.22,8-1.72,17.18-6.86,18.14-4.42.83-8,1-13.08-1.22l.08.22c6.28,6.9,12.4,17.13,18.58,24.24a47.86,47.86,0,0,1,7.52,10.66C863.47,674.75,864.7,680.21,863.83,682.57ZM894.2,669c-7.25,3.22-15.2,4-22.29,4.46C864,673,862,661.33,861.85,650.08c-.08-5.87-.85-12.08,5.62-17.45,9.39-7.78,18.6-14.68,26.95-21.37,6.58-5.26,7.76,3.72,9.41,8.94C911.75,645.23,908.3,662.73,894.2,669ZM911,550.6a395.54,395.54,0,0,1-45.81,74.92c-2.05-8.27-7.19-56.52-3-68.62,2.79-6.9,7.67-8.35,9-8.57,12.87-2.2,25.71-4.34,37.92-5.33C911.32,542.81,912.52,547.38,911,550.6ZM998,841l-4-39s-67-50-78-67,2-196,7-213c0,0,79,86,91,101S1019,684,998,841Zm20-2c0-29-2-59,6-118,2.61-19.24,17-77,17-77,25,19,38,37.5,38,37.5C1068,698,1018,839,1018,839Zm82-189s-16.33-4-39.37-17.26a6.15,6.15,0,0,1-.43.79c-3,4.75-8.85,4.88-13.82,3.84-3.48-.73-7.42-2.37-9.13-5.5a28.08,28.08,0,0,1-4-3.27,31.4,31.4,0,0,1-7.33-11.83,31.3,31.3,0,0,0-2.64-2.22,5.9,5.9,0,0,1-.71-8.79c-27.25-23.45-56.47-58.5-78.21-110.26L996,386s108.76,137,108,246.44A136.66,136.66,0,0,1,1100,650Zm45-44c-4,5-14.94,10.81-16,11l-22.09,11.7c10.15-21.47,28.55-55.59,43.09-75.7C1151.65,560.16,1148.42,595.52,1145,606Zm74.56,3C1191,623,1189,627.53,1177,635c-8,5-12,93.39-12,90,0-21-4.33-82.41-4-102,.13-7.93,1-8,10-10l38-7c-18-2-38,5-49-4-3.75-3.32-6.39-48.75-5-51,0,0,6.08-6,8.11-3.4C1192,585,1195,587.72,1219,604,1222.55,606.41,1223.46,607.14,1219.56,609.05ZM1330,809c-10,29-15,39-15,39,5-55-35-35-75-153s18-236,18-236c43,60,117,319,117,319C1346,800,1330,809,1330,809Zm72-61c-83-119-111.87-357.87-109-357,23,7,33,8,33,8,14,41,60.8,119,60.8,119C1498.6,663,1402,748,1402,748Z" transform="translate(-264.13 -206)"/><path d="M711,351" transform="translate(-264.13 -206)"/></svg>