<svg fill="#f9fafc" xmlns="http://www.w3.org/2000/svg" viewBox="0 0 1282.86 451.2"><path d="M367.6,794S386,756,392,727s15.2-45,15.2-45S447,639,457,631s50-43,50-46-79-36-88-30c0,0-6,1,20,15,0,0-27.56-10.12-50.79-21.35a378.65,378.65,0,0,0-75.09-27.19A230.17,230.17,0,0,0,284.2,516s44.8-2,71.8,6c22.88,6.78,44.33,4.22,50.34,3.29a5.78,5.78,0,0,1,3.28.44C416.93,529,446.26,544.09,458,548c12,4,39,12,46,12s13,0,11-14c-.27.38,17.65,14.5,22,17,0,0-1,36,55,44,0,0,24.52,1.76-54-50-78.86-52-113-187-113-188,0,1,38.74,149,170.22,188.8,0,0,33.78,10.2-49.22-42.8,0,0-10-8-9,9,.08-.07,0-.24-.29-.48a89.7,89.7,0,0,1-24-35.16A12.2,12.2,0,0,0,511,485c-4-5-28-13-28-13,.35.52-14.6-19.41-19-30,0,0,102,68,171,63,0,0-27,18-25,36,1.52,13.7,6.08,48.82,57.53,80.49A302.74,302.74,0,0,1,747,692.94a21.37,21.37,0,0,0,4,4.06c11,8,45,42,97,49,0,0-62-2-118-33,0,0-17-35-20-41,0,0-38-37-110-59,0,0-5.3,13,78.85,69,0,0-8.24-3.47-19.89-8.53A343.05,343.05,0,0,1,555.07,603c-5-4.89-9.36-8.44-12.07-9-10-2-53,47-73,62S427.2,667,367.6,794Z" transform="translate(-280.54 -342.8)"/><path d="M440,430s8.24,22.15,12,27c0,0-121.69-68.31-134-81s-29.32-29-37-33S363,397,440,430Z" transform="translate(-280.54 -342.8)"/><path d="M1480,793.85s-18.4-38-24.4-67-15.2-45-15.2-45-39.8-43-49.8-51-50-43-50-46,79-36,88-30c0,0,6,1-20,15,0,0,27.56-10.12,50.79-21.35a378.65,378.65,0,0,1,75.09-27.19,230.17,230.17,0,0,1,28.92-5.46s-44.8-2-71.8,6c-22.88,6.78-44.33,4.22-50.34,3.29a5.78,5.78,0,0,0-3.28.44c-7.31,3.26-36.64,18.36-48.38,22.27-12,4-39,12-46,12s-13,0-11-14c.27.38-17.65,14.5-22,17,0,0,1,36-55,44,0,0-24.52,1.76,54-50,78.86-52,113-187,113-188,0,1-38.74,149-170.22,188.8,0,0-33.78,10.2,49.22-42.8,0,0,10-8,9,9-.08-.07,0-.24.29-.48a89.7,89.7,0,0,0,24-35.16,12.2,12.2,0,0,1,1.73-3.36c4-5,28-13,28-13-.35.52,14.6-19.41,19-30,0,0-102,68-171,63,0,0,27,18,25,36-1.52,13.7-6.08,48.82-57.53,80.49a302.74,302.74,0,0,0-79.49,71.45,21.37,21.37,0,0,1-4,4.06c-11,8-45,42-97,49,0,0,62-2,118-33,0,0,17-35,20-41,0,0,38-37,110-59,0,0,5.3,13-78.85,69,0,0,8.24-3.47,19.89-8.53a343.05,343.05,0,0,0,103.89-70.49c5-4.89,9.36-8.44,12.07-9,10-2,53,47,73,62S1420.4,666.85,1480,793.85Z" transform="translate(-280.54 -342.8)"/><path d="M1403.58,436.73s-8.24,22.15-12,27c0,0,121.69-68.31,134-81s29.32-29,37-33S1480.58,403.73,1403.58,436.73Z" transform="translate(-280.54 -342.8)"/><path d="M1220.31,509.73s18.4-5.52,23.4-5.45c0,0-104-45.44-118.26-47.21s-33.19-4.8-39.56-7.82S1161.14,476,1220.31,509.73Z" transform="translate(-280.54 -342.8)"/><path d="M728,573.3c43.76,60.35,89,94.7,89,94.7-41-45-110-126-78-140a93.11,93.11,0,0,1,17.75-6c16.44-3.51,30.23,13.25,23.15,28.5-.13.28-.26.56-.4.82a161.63,161.63,0,0,0-8.85,20C767.42,580.61,755,593,755,593c1,4,19,25,19,25,5-89,39-104,39-104-13-8-43-2-67,8s-28,5-28,5c-34-37-10-78-10-78s-46,35-54,47-35.7,43-35.7,43S616,571,656,604s58,29,70,39,24,39,24,39c13,16,31,29,31,29-5.27-6.23-9.86-18-13.2-28.52a57.54,57.54,0,0,1,5.13-46.36L773,636l-.61-.5C756.22,621.92,735,616.23,714,618.79a28.05,28.05,0,0,1-6,.21c1-4,4-20,4-20-12-14-15-27-15-27-3-10-1-13.5,4.1-13.5h.18A36.36,36.36,0,0,1,728,573.3ZM696,533c0,6-4,79-28,66s-21-52-21-52c2-43,29-72,41-68S696,527,696,533Z" transform="translate(-280.54 -342.8)"/><path d="M780.7,619.56s1.12-49.13,25.68-87.09S842.12,476.63,847.7,461c0,0-25.68,64.77-30.15,89.33-1.78,9.81,2.8,8.93,13.16,5.78,51.94-15.79,60.47,15.93,49.84,46.48l-.47,1.34C864.45,648.6,829.28,685.32,817,711c0,0,13.17-43.38,35.17-75.8,20-29.43,16.48-57.53-19.52-50.92a73.19,73.19,0,0,0-32.92,15.34A114,114,0,0,0,780.7,619.56Z" transform="translate(-280.54 -342.8)"/><path d="M895.86,569.23c3.64,32.39-27.11,63.87-32.5,81.77,0,0,27.58-32.15,41.34-32.87,5.49-.29,6.15-2.42,14.93,4.12,44.06,32.82,64.55,23.5,66.08,5.07l.06-.81C987.93,599.52,962,564,960,540c0,0,3,35,7.52,58.51C978.41,655.13,901.41,597,895.86,569.23Z" transform="translate(-280.54 -342.8)"/><path d="M983,587c.15.44,2,11,3.63,17,12.39,45.67,50.8,81.39,63.09,107.07,0,0-13.17-43.38-35.17-75.8l-6.31-12.73a93.13,93.13,0,0,0-10.13-16.1l-6.18-7.89Z" transform="translate(-280.54 -342.8)"/><path d="M913,532.1l0-.1S912.31,531.88,913,532.1Z" transform="translate(-280.54 -342.8)"/><path d="M1221,571c3.28-9.85-18.42-51.49-49.09-75,0,0,27.44,50,18.35,67.24a36.61,36.61,0,0,1-10.5,12.77,128.51,128.51,0,0,0-22.29,20.61c-6.17,7.33-14.3,14.31-22.64,13.87-14.32-.75-21.76-.25-39.45-18.22-14.72-14.95-15.23-39-.76-54.21q.56-.59,1.14-1.17s-13.63-15.45-16.36-40.89a112.6,112.6,0,0,1-3.43,30.62c-10,36.38-4.87,66.58,19.86,84.47C1104,617,1111,622,1115.75,629.58c0,0-3.63,32.71-35.44,65.42,0,0,41.51-42.44,56.69-62,28.36-36.56,55.32-59.51,66.81-61.19,4.51-.66,9.09-1.14,11.78,2.54,0,0,3.41,4.65-1.59,9.65C1214,584,1218,580,1221,571Z" transform="translate(-280.54 -342.8)"/><path d="M928.78,398.71s34.56,95.79,56.36,198.05c2.53,11.88,8.73,19.69,16.29,18.61.47-.07,2.32-1.11,2.79-1.18,0,0-10.92-37.44,30-30,22,4,35,16,52,35,0,0-7.4-23.15-23-34-23-16-26.47-28-27-29,0,0-22,44-38,13-6.72-13-25.77-68.92-33.29-85.76S935.11,407.48,928.78,398.71Z" transform="translate(-280.54 -342.8)"/></svg>