<svg xmlns="http://www.w3.org/2000/svg" viewBox="0 0 1870.84 692.76"><path d="M560.74,466.21,503.48,825.35h98.74a48.74,48.74,0,0,0,48.09-40.79L704.8,442.34H588.72A28.33,28.33,0,0,0,560.74,466.21Z" transform="translate(-26.6 -133.27)"/><path d="M1714.88,466.89,1657.63,826h98.73a48.76,48.76,0,0,0,48.1-40.79L1859,443H1742.86A28.34,28.34,0,0,0,1714.88,466.89Z" transform="translate(-26.6 -133.27)"/><path d="M1096.52,671.37l-9.54,59.9h83l12.67-79h-63.74A22.68,22.68,0,0,0,1096.52,671.37Z" transform="translate(-26.6 -133.27)"/><path d="M1092.17,744a8.12,8.12,0,0,0-8,6.79,34.59,34.59,0,0,0,34.13,40.27h43.24l7.55-47.06Z" transform="translate(-26.6 -133.27)"/><path d="M984.45,729.91l19.12-119.3a90.08,90.08,0,0,1,89.31-76.27h92.85l28-175H1067.25a48.76,48.76,0,0,0-48.1,40.79l-10.29,65.79-115.27-1.28H849.67c-61.3,0-107.63,46.82-119.29,107.15-12.32,63.72-23.56,141.52-33,194.07a50.54,50.54,0,0,0,49.75,59.49H1063A82.64,82.64,0,0,1,984.45,729.91Zm-4.18-85.85L966.06,733.6A68.08,68.08,0,0,1,898.82,791H801.36A22.69,22.69,0,0,1,779,764.79L793,675.3a68.08,68.08,0,0,1,67.26-57.5h97.56A22.7,22.7,0,0,1,980.27,644.06Z" transform="translate(-26.6 -133.27)"/><path d="M673.19,258.52S658,338.91,743.67,338.91c0,0-85.65,0-101,80.39,0,0,15.4-80.39-70.25-80.45C572.37,338.85,658,338.91,673.19,258.52Z" transform="translate(-26.6 -133.27)"/><path d="M1827,257.79s-15.16,80.39,70.49,80.39c0,0-85.65,0-101,80.39,0,0,15.4-80.39-70.25-80.45C1726.14,338.12,1811.79,338.18,1827,257.79Z" transform="translate(-26.6 -133.27)"/><path d="M759.56,275.66s549.78-168.26,973.17,0C1732.73,275.66,1425.23-44.72,759.56,275.66Z" transform="translate(-26.6 -133.27)"/><path d="M172.32,825.35H26.6l61-365.42A120.41,120.41,0,0,1,206.36,359.34h42l-16.8,105.3h202c37.94,0,74.55,33.18,69.44,72-3.44,26.21-25.53,157.61-30.95,182.67C449.1,825.35,391.32,825.35,352.94,825.35H238.41c-14.27,0-24.71-19.67-22-33.69l101.44-.2c46.3,0,58.55-27.32,65.36-64.75l15.63-85.51c1.88-12-8-22.42-20.17-22.42H265c-33.47,0-62.79,24.08-68,57.14Z" transform="translate(-26.6 -133.27)"/><path d="M1361.17,548.77l76-76A101.56,101.56,0,0,1,1509,443h151.89L1508.07,595.83Z" transform="translate(-26.6 -133.27)"/><path d="M1264.75,712.19h0a51.76,51.76,0,0,0-51.12-59.89H1181l-13.19,79h74.55A22.69,22.69,0,0,0,1264.75,712.19Z" transform="translate(-26.6 -133.27)"/><path d="M1591,464.64H1389l10.42-65.31a34.55,34.55,0,0,0-34.11-40h-135.4l-29.22,175.05H1320a34.51,34.51,0,0,1,34.07,39.94l-14.87,93.27a90.79,90.79,0,0,1-89.65,76.49h-83.87l-7.85,47.06h161.67a40.75,40.75,0,0,1-37.16,34.2h3.37a51.86,51.86,0,0,0,51.18-43.45l17.45-106c5.25-33.06,34.57-57.14,68-57.14H1536c12.12,0,22,10.44,20.17,22.42l-15.63,85.51c-6.81,37.43-19.06,64.75-65.36,64.75l-101.44.2c-2.68,14,7.76,33.69,22,33.69h114.53c38.38,0,96.16,0,119.11-106.05,5.42-25.06,27.5-156.46,31-182.67C1665.51,497.82,1628.9,464.64,1591,464.64Z" transform="translate(-26.6 -133.27)"/></svg>