<svg  fill="#171b2c" xmlns="http://www.w3.org/2000/svg" viewBox="0 0 1102.67 827.21"><path d="M1220.72,436.45c.89,1.93,2.17,3.41,2.17,4.9,0,10.83-.1,21.66-.56,32.48a12.26,12.26,0,0,1-2.79,7.1c-13.39,15.25-26.85,30.43-40.59,45.36q-16.18,17.58-33.09,34.5c-14.8,14.79-29.77,29.43-45,43.75-13.93,13.08-28.26,25.73-42.52,38.43-13.4,11.93-26.71,24-40.5,35.45-17.21,14.33-34.65,28.41-52.39,42.08-19.86,15.31-40,30.22-60.33,44.94Q883.35,781.22,860.86,796,837,811.77,812.54,826.67c-16.88,10.23-33.95,20.19-51.23,29.73-19.61,10.82-39.24,21.69-59.43,31.35-23.65,11.31-47.57,22.21-72,31.73a529.37,529.37,0,0,1-117.3,31.21c-26.5,3.81-52.55,1.49-77.64-7.85a63.22,63.22,0,0,1-31.51-25.13c-9.73-15.23-13.68-32.41-12.14-50.56a241.46,241.46,0,0,1,21.16-80.55c8.07-17.6,17.19-34.77,26.62-51.69,8.63-15.48,18.2-30.43,27.6-45.47,3.84-6.15,8.32-11.91,13.12-18.72.41,7.92.12,15.42,6.17,20.63-3.49,6.44-6.7,12.79-10.3,18.92-12.67,21.57-23,44.25-29.86,68.24-5,17.52-9.43,35.39-8.54,53.91,1.07,22.08,8.69,41.24,26.52,55.24,13.37,10.5,29.24,14.17,45.78,16.48,29.21,4.07,57.22-2.32,85.35-8.38,32.81-7.07,64-18.9,94.45-32.66,14.67-6.62,29.45-13,43.84-20.2q22.72-11.32,44.77-24,33.87-19.5,67.2-39.93c10.61-6.48,20.76-13.73,30.95-20.86,17.7-12.37,35.49-24.61,52.82-37.46,15.46-11.48,30.45-23.61,45.48-35.67,11.77-9.45,23.34-19.15,34.87-28.89,13.59-11.47,27.29-22.82,40.47-34.74,13.93-12.6,27.35-25.76,40.91-38.77,11-10.56,22.19-21,32.77-32,12.34-12.82,24.17-26.13,36.08-39.35,6.45-7.14,12.83-14.36,18.88-21.84C1192.3,472.31,1206,455,1220.72,436.45Z" transform="translate(-391 -125.23)"/><path d="M687.61,450V600l-55.79,5.91V481l-28.24,3V608.75L544.92,615V490.11l-28,2.83v125l-60.63,6.38v-150Z" transform="translate(-391 -125.23)"/><path d="M787.5,589.51v-6.12c0-46,.06-92-.1-138,0-4.62,1.16-6.18,6-6.58,17.41-1.48,34.78-3.56,52.17-5.4,1.48-.15,3-.24,5-.41V556.19l81.12-8.5V424.42l63.48-6.66V631L850.6,646.15c0-9.19-.08-18.1.15-27,0-.73,2.07-1.89,3.27-2,19.7-2.14,39.41-4.15,59.12-6.21,6.09-.64,12.18-1.36,18.46-2.07v-34.4Z" transform="translate(-391 -125.23)"/><path d="M490.07,681.24V652.59l238.78-25.05V656.2l-78.43,8.27,79,63.89c-8.82,1-16.3,1.81-23.79,2.6-11.1,1.15-22.22,2.08-33.28,3.5a9.27,9.27,0,0,1-8-2.55q-27-23.43-54.11-46.65c-1.12-1-2.3-1.88-3.77-3.08-8.77,10.21-17.43,20.29-26.07,30.37-8.89,10.37-17.66,20.85-26.73,31.05A11.43,11.43,0,0,1,547,747c-14.7,1.78-29.45,3.23-44.19,4.74-2.61.27-5.23.36-9.52.65,3.22-4.91,5.27-9.08,8.26-12.4,18.82-20.93,37.84-41.66,56.8-62.47.77-.85,1.49-1.75,3.14-3.71Z" transform="translate(-391 -125.23)"/><path d="M1267.11,490.43c7.74-54.79,15.49-109.58,23.3-164.84l-155.1-59.71.21-1,164.66,23.28L1359.91,133l1.08.31q-3.52,24.68-7.06,49.36-7.9,55.9-15.83,111.81c-.39,2.69.5,3.77,3,4.71q45.95,17.54,91.81,35.29c20.31,7.82,40.61,15.63,60.8,24.23-7.69-1-15.38-2-23.06-3.06q-61.33-8.73-122.65-17.5c-5.44-.77-10.91-1.36-16.33-2.26-2.81-.47-4.23.44-5.24,3.09q-21.63,56.67-43.41,113.27c-4.94,12.83-10,25.63-14.94,38.45Z" transform="translate(-391 -125.23)"/><path d="M1076.37,532.15l56.36-5.85-13.87,14.45a21.06,21.06,0,0,0-1.73,1.81c-7.94,10.55-18,15.37-31.69,16.09-23.73,1.23-47.35,4.68-71.49,7.25V416c8.54-.94,17.1-1.92,25.66-2.82,18.38-1.95,36.74-4.2,55.16-5.56,5.41-.4,11.08,1.46,16.51,2.78,28.18,6.86,56.33,13.87,84.48,20.85,4.14,1,8.25,2.15,13.69,3.58l-51,63.33-1.34-.53V425.88l-80.77,8.26Z" transform="translate(-391 -125.23)"/><path d="M824.73,331.87c13.16-9.3,26.21-18.75,39.5-27.85,18.76-12.84,37.51-25.72,56.62-38,16.6-10.68,33.41-21.08,50.62-30.73,27.64-15.5,55.37-30.93,83.68-45.15,23.41-11.76,47.42-22.45,71.69-32.31a473.22,473.22,0,0,1,100.44-28.4c28.21-4.7,56.51-6.55,84.73.45a75.24,75.24,0,0,1,30.32,15.48c2,1.68,3,3.21,1.78,5.88-1.54,3.47-2.66,7.13-4,10.67-6.11,15.56-12.3,31.08-18.35,46.65-3,7.67-5.72,15.42-8.57,23.13a24.43,24.43,0,0,1-3.46,7c-.54-5.19-1-10.4-1.64-15.58-2.68-20.1-13.5-35.49-29.81-46.38-14.62-9.76-31.58-13.33-49.28-13.85a253.78,253.78,0,0,0-62.44,5.89c-18.6,4.1-37,9.35-55.16,15.17a414.06,414.06,0,0,0-43.62,16.88c-21.61,9.75-43,20.15-64.11,30.86-17.31,8.76-34.42,17.95-51.17,27.72-22.1,12.87-43.87,26.32-65.57,39.86-10,6.23-19.48,13.27-29.2,19.93-5.6,3.84-10.88,8.41-16.95,11.26-4.67,2.19-10.35,2.21-15.58,3.2Z" transform="translate(-391 -125.23)"/><path d="M497.42,413.58V391.15c9.45-1.06,18.66-2.36,27.92-3,4.12-.28,5.37-1.57,5.25-5.64-.24-8.05,0-8.19,7.83-9.07,14.37-1.59,28.77-3,43.82-4.58v13.25l62.27-6.56a98.94,98.94,0,0,1,.11-9.92c.12-1.26,1.37-3.34,2.3-3.44,16.16-1.89,32.35-3.52,49.07-5.26V370.1l32.88-3.34V389.3l-87.49,9.3v16.84l77.38-8v20.4l-213.4,22.34V429.54l80.2-8.21v-16.9Z" transform="translate(-391 -125.23)"/><path d="M707.85,597.7V447.88l61-6.37v5.92c0,46.17-.06,92.33.09,138.49,0,4.44-1.11,5.87-5.69,6.26-17.08,1.45-34.12,3.45-51.18,5.24C710.79,597.55,709.5,597.59,707.85,597.7Z" transform="translate(-391 -125.23)"/><path d="M1231.05,426.21l-147.61-36.47.12-1,152.06,2.3c5.26-21.21,10.48-42.27,15.93-64.28,6.44,2.41,12.62,4.48,18.53,7.15,1.12.51,1.67,3.39,1.65,5.17-.15,17.14-1.4,34.34-.52,51.42,1,20-4.53,38.56-9.2,57.44q-16,64.64-32,129.27c-.08.3-.23.59-1.21.87C1229.52,527.58,1230.28,477.07,1231.05,426.21Z" transform="translate(-391 -125.23)"/><path d="M1152.63,382l37.07-41-131.12,13.74V332.07c9.12-1,18.46-2.05,27.81-3q55.6-5.84,111.2-11.63c7.12-.75,14.23-1.58,21.35-2.21a11.42,11.42,0,0,1,4.83.72c5.86,2.16,11.58,4.71,17.5,6.7,2.57.86,3,2.12,2.48,4.38-2.46,10-4.53,19.93-12.27,27.77-5.34,5.42-9.45,12-14.48,17.8a11.19,11.19,0,0,1-6.49,3.45c-17.34,2.09-34.72,3.87-52.09,5.72C1156.94,381.9,1155.45,381.89,1152.63,382Z" transform="translate(-391 -125.23)"/><path d="M1189.57,680.12l-101.71,10.67c0-6.76-.17-13.35.17-19.91,0-1,2.41-2.4,3.85-2.6,11.21-1.57,22.45-2.88,33.69-4.29,2.31-.29,4.61-.65,7.59-1.08v-5.33c0-12.16-.13-24.33.12-36.49a10.27,10.27,0,0,1,2.64-6.43q15.45-15.57,31.4-30.65a13,13,0,0,1,6.45-3c5.06-.9,10.23-1.23,15.8-1.84Z" transform="translate(-391 -125.23)"/><path d="M857.5,413.08c0-5.36.34-10-.09-14.62-.46-4.92,1.66-6.1,6.15-6.47,13.74-1.12,27.45-2.71,42.11-4.21-5-17-9.86-33.8-15-51.27l52.82-5.59c4.32,17,8.59,33.84,13.05,51.43L1008.8,377c0,6.34.14,12.41-.17,18.47,0,.86-2.21,2.19-3.5,2.33-22.49,2.47-45,4.79-67.5,7.13q-37,3.85-74,7.68C861.88,412.8,860.08,412.89,857.5,413.08Z" transform="translate(-391 -125.23)"/><path d="M840.5,716.72,790.94,722V621l49.56-5.23Z" transform="translate(-391 -125.23)"/><path d="M779.68,420.68c7.84-23.26,15.46-46.1,23.31-68.85,1.46-4.22,4.26-6.83,9.56-7.22,14.26-1.06,28.47-2.93,42.7-4.44,1.45-.15,2.93,0,4.79,0l-17.53,56.94c-1.52,4.93-2.87,9.91-4.66,14.74-.5,1.36-2.16,3.08-3.45,3.24-17.51,2.14-35,4.05-52.59,6A10.46,10.46,0,0,1,779.68,420.68Z" transform="translate(-391 -125.23)"/><path d="M1305,431.33l9.53-24.92,104.4,25.74-.07.92Z" transform="translate(-391 -125.23)"/><path d="M1002.44,369.79c-7.24-.71-13.55-1.17-19.8-2.07-1.27-.18-3.3-2-3.32-3-.23-12.29-.15-24.59-.15-37.46,7.39.67,14.29,1.23,21.16,2a3.09,3.09,0,0,1,2,2.2C1002.47,344.06,1002.44,356.67,1002.44,369.79Z" transform="translate(-391 -125.23)"/><path d="M948,693.73c-2.46-7.88-4.71-15.1-7.21-23.09l38.43-3.77L980,668Z" transform="translate(-391 -125.23)"/><path d="M1122.83,626.89v27.16l-32.62,4.17-.45-1C1100.55,647.33,1111.34,637.42,1122.83,626.89Z" transform="translate(-391 -125.23)"/><path d="M1365.86,188.28c3.86,28.34-3.87,54.95-11.6,81.56l-1.21-.18,11.52-81.49Z" transform="translate(-391 -125.23)"/><path d="M789.59,358.77c-1.21,17.05-16.44,20.94-25.73,30.62-2.89-6.23-1.08-9.93,3.77-13.38C775.13,370.67,782.16,364.66,789.59,358.77Z" transform="translate(-391 -125.23)"/><path d="M1272.77,244.17v31l-8.19-1c2.58-10.51,5-20.32,7.38-30.13Z" transform="translate(-391 -125.23)"/><path d="M1204.66,545.88l13.95-15v13.38Z" transform="translate(-391 -125.23)"/></svg>