<svg xmlns="http://www.w3.org/2000/svg" viewBox="0 0 608.91 397.41"><path d="M1229.08,470.46q-4.21,13.08-8.69,26.07-5.1,14.81-7.09,18.67a61.61,61.61,0,0,1-28.11,27.39q-5.26,2.45-16.78,4.56-31.79,5.83-63.6,11.53c-16.63,3-23.52-10.52-18.85-24.59q6.19-18.65,12.76-37.13c6.57-18.5,22.31-35.09,42.3-38.73q32.57-5.93,65.16-11.72,8.83-1.58,12.78-.73C1230.43,448.23,1232.34,460.37,1229.08,470.46Zm-78.21,27.82c-16.92,3.12-20.07,18.56-24.62,32.24-2.17,6.52-.55,13.8,7.83,12.26q17.54-3.22,35.11-6.41,7.45-1.35,10.83-3c11.8-6,14.55-18.61,18.4-30.12,2.12-6.32.43-13.66-7.94-12.15Q1170.68,494.64,1150.87,498.28Z" transform="translate(-688.04 -307.14)"/><path d="M1034.16,571.71q-37.83,7-75.7,13.75c-7.7,1.36-14.33,1.7-19.32-4s-4.54-14.18-2.18-21.16q11.6-34.3,23.37-68.54a.72.72,0,0,1,.59-.51l40.79-7.4a.31.31,0,0,1,.35.41q-13,38.12-25.84,75.83c-2,6,2.88,11,8.94,9.91q25.9-4.69,52.8-9.65a1.47,1.47,0,0,0,1.19-1q4.71-13.44,9.25-27.19c3.21-9.72.93-15.3-10.19-13.26l-19.84,3.66a.38.38,0,0,1-.43-.5l14.78-43.32a.94.94,0,0,1,.76-.66q19.49-3.65,39-7c11.06-1.92,13.84,7.79,11,16.38q-12.75,38-25.86,75.89c-4.9,14.17-12.94,26-27.77,30.89q-2.08.67-12.55,2.61-22.53,4.15-45.06,8.23a.38.38,0,0,1-.42-.49l3.55-10.29a.85.85,0,0,1,.64-.55q22.29-4.12,44.57-8.13c8.21-1.47,12.94-5,14-13.54C1034.57,571.77,1034.45,571.66,1034.16,571.71Z" transform="translate(-688.04 -307.14)"/><path d="M906.21,595.1l-41.07,7.46a.32.32,0,0,1-.36-.42l34.44-99.42a.32.32,0,0,1,.24-.21l40.53-7.4a.32.32,0,0,1,.36.42l-33.9,99.36A.32.32,0,0,1,906.21,595.1Z" transform="translate(-688.04 -307.14)"/><path d="M756.33,570.46c-6.93,1.17-15.42,2-21.09,5.2-8,4.54-10.89,10.49-14.09,19.79q-6,17.63-12,35.24a.76.76,0,0,1-.61.53l-20,3.68a.34.34,0,0,1-.38-.45l18.39-53.85q5.4-15.79,6.81-18.79c6.86-14.63,21.35-29,38.2-32.08q63.67-11.78,127.3-23.37a.4.4,0,0,1,.45.52l-33.72,98.81a1,1,0,0,1-.83.71l-40.55,7.4c-.41.07-.54-.09-.41-.48l18.57-54.42c.13-.37,0-.51-.38-.44l-53.24,9.73a1,1,0,0,0-.79.67l-18.68,54.57a.66.66,0,0,1-.53.46l-9.92,1.83a.41.41,0,0,1-.46-.53l18.47-54.25C756.87,570.55,756.74,570.39,756.33,570.46Z" transform="translate(-688.04 -307.14)"/><path d="M1110.25,439.92c-2.92-3.05.8-8.9,2.87-12.64q17.67-32,22.78-41.15c1.83-3.28,3.35-6.86.44-10q-8.19-8.75-16.26-17.57c-2.11-2.3-.48-6.19,1.42-8.31,2.6-2.89,5.41-3.53,10.25-3.9q14.1-1.07,28.21-2.09c5.69-.41,9-1.15,12.5-4.25q16.45-14.68,32.81-29.46a13.55,13.55,0,0,1,6.33-3.21c5.06-1.09,6.06,2.29,4.76,5.18q-7.56,16.94-15.1,33.89c-1.16,2.6-5.82,9.58-.72,13.93,9,6.65,20.19,10.62,32.06,15.07,8.6,3.32,14.34,20.26-4.5,14.4-14.85-4.55-17.75-5.83-30.75-7.49-6.9-.83-12.68-.49-18.67,2.55a94.63,94.63,0,0,0-14.59,11.58l-41.33,40.08C1120.56,438.68,1114,443.84,1110.25,439.92Z" transform="translate(-688.04 -307.14)"/><path d="M1229.55,322.39c.68-.63,1.08-1.23,2.3-1.28.67,0,1.17.45,1,.93l-3,7.72a1.11,1.11,0,0,0,.57,1.35l5.74,3.43a.45.45,0,0,1,.25.37c.07,4.35-10.12,1.34-12.88,3.93l-7.62,7.21c-.86.81-3.05.91-2.5-.51q1.62-4.12,3.3-8.28a1,1,0,0,0-.51-1.29q-2.31-1.44-4.9-3.13c-1.68-1.1.67-2.67,2.23-2.83q3.71-.35,7.43-.66C1223.16,329.17,1228,323.83,1229.55,322.39Z" transform="translate(-688.04 -307.14)"/><path d="M1159.31,435.25c-2.89,2.77-4.7.42-3.36-2q3.94-7.19,7.8-14.38c.6-1.12.27-1.85-.64-2.87-1.48-1.64-3-3.26-4.46-4.89-1.15-1.25.36-3,1.73-3.68,1.81-.88,6-.77,8.38-.92,3.16-.22,4.47-.09,6.26-1.7l10.12-9.16c1.31-1.18,4.19-1.19,3.16,1.06-2.63,5.77-4.25,9.47-4.89,11.11-.28.75.34,1.49,1.09,2.07q3.64,2.85,7.3,5.67c1.91,1.48.92,3.79-1,4.83a6.13,6.13,0,0,1-2.8.52l-12.41.1a4.26,4.26,0,0,0-2.87,1.39Q1166,428.81,1159.31,435.25Z" transform="translate(-688.04 -307.14)"/><path d="M803.77,613.12c-5.37,18-5,33,2.23,47.6,33.08,67.2,195.51,52.74,322.54-13.57s197.35-171.25,157-234.37c-20.64-32.32-66.27-47.4-122.94-45.54l-4.22,11.43c47.81.15,86.21,14.29,104.25,42.55,36.92,57.82-25.29,152.79-139,212.12S884.53,694,847.61,636.2c-5.18-8.11-5.05-21-1.9-31.14" transform="translate(-688.04 -307.14)"/><path d="M861,535.51,847.61,528" transform="translate(-688.04 -307.14)"/></svg>